<svg xmlns="http://www.w3.org/2000/svg" width="1300" height="1750" viewBox="0 0 1300 1750">
  <rect width="100%" height="100%" fill="#f7f1e8"/>
  <g><path d="M 240 88 C 280 88, 280 88, 320 88" fill="none" stroke="#c7b8a6" stroke-width="2"/><text x="280" y="80" font-size="11" text-anchor="middle" fill="#6b5a4f">包含节点</text><path d="M 480 88 C 640 88, 640 358, 800 358" fill="none" stroke="#c7b8a6" stroke-width="2"/><text x="640" y="215" font-size="11" text-anchor="middle" fill="#6b5a4f">关联概念</text><path d="M 480 88 C 640 88, 640 88, 800 88" fill="none" stroke="#c7b8a6" stroke-width="2"/><text x="640" y="80" font-size="11" text-anchor="middle" fill="#6b5a4f">关联概念</text><path d="M 480 88 C 520 88, 520 358, 560 358" fill="none" stroke="#c7b8a6" stroke-width="2"/><text x="520" y="215" font-size="11" text-anchor="middle" fill="#6b5a4f">关联概念</text><path d="M 240 88 C 280 88, 280 178, 320 178" fill="none" stroke="#c7b8a6" stroke-width="2"/><text x="280" y="125" font-size="11" text-anchor="middle" fill="#6b5a4f">包含节点</text><path d="M 480 178 C 640 178, 640 358, 800 358" fill="none" stroke="#c7b8a6" stroke-width="2"/><text x="640" y="260" font-size="11" text-anchor="middle" fill="#6b5a4f">关联概念</text><path d="M 480 178 C 640 178, 640 88, 800 88" fill="none" stroke="#c7b8a6" stroke-width="2"/><text x="640" y="125" font-size="11" text-anchor="middle" fill="#6b5a4f">关联概念</text><path d="M 480 178 C 520 178, 520 538, 560 538" fill="none" stroke="#c7b8a6" stroke-width="2"/><text x="520" y="350" font-size="11" text-anchor="middle" fill="#6b5a4f">关联概念</text><path d="M 480 178 C 520 178, 520 628, 560 628" fill="none" stroke="#c7b8a6" stroke-width="2"/><text x="520" y="395" font-size="11" text-anchor="middle" fill="#6b5a4f">关联概念</text><path d="M 240 88 C 280 88, 280 268, 320 268" fill="none" stroke="#c7b8a6" stroke-width="2"/><text x="280" y="170" font-size="11" text-anchor="middle" fill="#6b5a4f">包含节点</text><path d="M 480 268 C 640 268, 640 358, 800 358" fill="none" stroke="#c7b8a6" stroke-width="2"/><text x="640" y="305" font-size="11" text-anchor="middle" fill="#6b5a4f">关联概念</text><path d="M 480 268 C 640 268, 640 88, 800 88" fill="none" stroke="#c7b8a6" stroke-width="2"/><text x="640" y="170" font-size="11" text-anchor="middle" fill="#6b5a4f">关联概念</text><path d="M 480 268 C 520 268, 520 448, 560 448" fill="none" stroke="#c7b8a6" stroke-width="2"/><text x="520" y="350" font-size="11" text-anchor="middle" fill="#6b5a4f">关联概念</text><path d="M 240 88 C 280 88, 280 358, 320 358" fill="none" stroke="#c7b8a6" stroke-width="2"/><text x="280" y="215" font-size="11" text-anchor="middle" fill="#6b5a4f">包含节点</text><path d="M 480 358 C 640 358, 640 358, 800 358" fill="none" stroke="#c7b8a6" stroke-width="2"/><text x="640" y="350" font-size="11" text-anchor="middle" fill="#6b5a4f">关联概念</text><path d="M 480 358 C 640 358, 640 88, 800 88" fill="none" stroke="#c7b8a6" stroke-width="2"/><text x="640" y="215" font-size="11" text-anchor="middle" fill="#6b5a4f">关联概念</text><path d="M 480 358 C 520 358, 520 808, 560 808" fill="none" stroke="#c7b8a6" stroke-width="2"/><text x="520" y="575" font-size="11" text-anchor="middle" fill="#6b5a4f">关联概念</text><path d="M 240 88 C 280 88, 280 448, 320 448" fill="none" stroke="#c7b8a6" stroke-width="2"/><text x="280" y="260" font-size="11" text-anchor="middle" fill="#6b5a4f">包含节点</text><path d="M 480 448 C 640 448, 640 358, 800 358" fill="none" stroke="#c7b8a6" stroke-width="2"/><text x="640" y="395" font-size="11" text-anchor="middle" fill="#6b5a4f">关联概念</text><path d="M 480 448 C 640 448, 640 88, 800 88" fill="none" stroke="#c7b8a6" stroke-width="2"/><text x="640" y="260" font-size="11" text-anchor="middle" fill="#6b5a4f">关联概念</text><path d="M 480 448 C 520 448, 520 88, 560 88" fill="none" stroke="#c7b8a6" stroke-width="2"/><text x="520" y="260" font-size="11" text-anchor="middle" fill="#6b5a4f">关联概念</text><path d="M 480 448 C 640 448, 640 178, 800 178" fill="none" stroke="#c7b8a6" stroke-width="2"/><text x="640" y="305" font-size="11" text-anchor="middle" fill="#6b5a4f">关联概念</text><path d="M 240 88 C 280 88, 280 538, 320 538" fill="none" stroke="#c7b8a6" stroke-width="2"/><text x="280" y="305" font-size="11" text-anchor="middle" fill="#6b5a4f">包含节点</text><path d="M 480 538 C 640 538, 640 358, 800 358" fill="none" stroke="#c7b8a6" stroke-width="2"/><text x="640" y="440" font-size="11" text-anchor="middle" fill="#6b5a4f">关联概念</text><path d="M 480 538 C 640 538, 640 88, 800 88" fill="none" stroke="#c7b8a6" stroke-width="2"/><text x="640" y="305" font-size="11" text-anchor="middle" fill="#6b5a4f">关联概念</text><path d="M 480 538 C 520 538, 520 88, 560 88" fill="none" stroke="#c7b8a6" stroke-width="2"/><text x="520" y="305" font-size="11" text-anchor="middle" fill="#6b5a4f">关联概念</text><path d="M 240 88 C 280 88, 280 628, 320 628" fill="none" stroke="#c7b8a6" stroke-width="2"/><text x="280" y="350" font-size="11" text-anchor="middle" fill="#6b5a4f">包含节点</text><path d="M 480 628 C 640 628, 640 358, 800 358" fill="none" stroke="#c7b8a6" stroke-width="2"/><text x="640" y="485" font-size="11" text-anchor="middle" fill="#6b5a4f">关联概念</text><path d="M 480 628 C 640 628, 640 88, 800 88" fill="none" stroke="#c7b8a6" stroke-width="2"/><text x="640" y="350" font-size="11" text-anchor="middle" fill="#6b5a4f">关联概念</text><path d="M 480 628 C 520 628, 520 718, 560 718" fill="none" stroke="#c7b8a6" stroke-width="2"/><text x="520" y="665" font-size="11" text-anchor="middle" fill="#6b5a4f">关联概念</text><path d="M 240 88 C 280 88, 280 718, 320 718" fill="none" stroke="#c7b8a6" stroke-width="2"/><text x="280" y="395" font-size="11" text-anchor="middle" fill="#6b5a4f">包含节点</text><path d="M 480 718 C 640 718, 640 358, 800 358" fill="none" stroke="#c7b8a6" stroke-width="2"/><text x="640" y="530" font-size="11" text-anchor="middle" fill="#6b5a4f">关联概念</text><path d="M 480 718 C 640 718, 640 88, 800 88" fill="none" stroke="#c7b8a6" stroke-width="2"/><text x="640" y="395" font-size="11" text-anchor="middle" fill="#6b5a4f">关联概念</text><path d="M 480 718 C 520 718, 520 178, 560 178" fill="none" stroke="#c7b8a6" stroke-width="2"/><text x="520" y="440" font-size="11" text-anchor="middle" fill="#6b5a4f">关联概念</text><path d="M 480 718 C 640 718, 640 268, 800 268" fill="none" stroke="#c7b8a6" stroke-width="2"/><text x="640" y="485" font-size="11" text-anchor="middle" fill="#6b5a4f">关联概念</text><path d="M 240 88 C 280 88, 280 808, 320 808" fill="none" stroke="#c7b8a6" stroke-width="2"/><text x="280" y="440" font-size="11" text-anchor="middle" fill="#6b5a4f">包含节点</text><path d="M 480 808 C 640 808, 640 358, 800 358" fill="none" stroke="#c7b8a6" stroke-width="2"/><text x="640" y="575" font-size="11" text-anchor="middle" fill="#6b5a4f">关联概念</text><path d="M 480 808 C 640 808, 640 88, 800 88" fill="none" stroke="#c7b8a6" stroke-width="2"/><text x="640" y="440" font-size="11" text-anchor="middle" fill="#6b5a4f">关联概念</text><path d="M 480 808 C 520 808, 520 178, 560 178" fill="none" stroke="#c7b8a6" stroke-width="2"/><text x="520" y="485" font-size="11" text-anchor="middle" fill="#6b5a4f">关联概念</text><path d="M 480 808 C 640 808, 640 268, 800 268" fill="none" stroke="#c7b8a6" stroke-width="2"/><text x="640" y="530" font-size="11" text-anchor="middle" fill="#6b5a4f">关联概念</text><path d="M 240 88 C 280 88, 280 898, 320 898" fill="none" stroke="#c7b8a6" stroke-width="2"/><text x="280" y="485" font-size="11" text-anchor="middle" fill="#6b5a4f">包含节点</text><path d="M 480 898 C 640 898, 640 358, 800 358" fill="none" stroke="#c7b8a6" stroke-width="2"/><text x="640" y="620" font-size="11" text-anchor="middle" fill="#6b5a4f">关联概念</text><path d="M 480 898 C 640 898, 640 88, 800 88" fill="none" stroke="#c7b8a6" stroke-width="2"/><text x="640" y="485" font-size="11" text-anchor="middle" fill="#6b5a4f">关联概念</text><path d="M 480 898 C 520 898, 520 178, 560 178" fill="none" stroke="#c7b8a6" stroke-width="2"/><text x="520" y="530" font-size="11" text-anchor="middle" fill="#6b5a4f">关联概念</text><path d="M 240 88 C 280 88, 280 988, 320 988" fill="none" stroke="#c7b8a6" stroke-width="2"/><text x="280" y="530" font-size="11" text-anchor="middle" fill="#6b5a4f">包含节点</text><path d="M 480 988 C 640 988, 640 358, 800 358" fill="none" stroke="#c7b8a6" stroke-width="2"/><text x="640" y="665" font-size="11" text-anchor="middle" fill="#6b5a4f">关联概念</text><path d="M 480 988 C 640 988, 640 88, 800 88" fill="none" stroke="#c7b8a6" stroke-width="2"/><text x="640" y="530" font-size="11" text-anchor="middle" fill="#6b5a4f">关联概念</text><path d="M 480 988 C 520 988, 520 268, 560 268" fill="none" stroke="#c7b8a6" stroke-width="2"/><text x="520" y="620" font-size="11" text-anchor="middle" fill="#6b5a4f">关联概念</text><path d="M 240 88 C 280 88, 280 1078, 320 1078" fill="none" stroke="#c7b8a6" stroke-width="2"/><text x="280" y="575" font-size="11" text-anchor="middle" fill="#6b5a4f">包含节点</text><path d="M 480 1078 C 640 1078, 640 358, 800 358" fill="none" stroke="#c7b8a6" stroke-width="2"/><text x="640" y="710" font-size="11" text-anchor="middle" fill="#6b5a4f">关联概念</text><path d="M 480 1078 C 640 1078, 640 88, 800 88" fill="none" stroke="#c7b8a6" stroke-width="2"/><text x="640" y="575" font-size="11" text-anchor="middle" fill="#6b5a4f">关联概念</text><path d="M 480 1078 C 520 1078, 520 178, 560 178" fill="none" stroke="#c7b8a6" stroke-width="2"/><text x="520" y="620" font-size="11" text-anchor="middle" fill="#6b5a4f">关联概念</text><path d="M 240 88 C 280 88, 280 1168, 320 1168" fill="none" stroke="#c7b8a6" stroke-width="2"/><text x="280" y="620" font-size="11" text-anchor="middle" fill="#6b5a4f">包含节点</text><path d="M 480 1168 C 640 1168, 640 358, 800 358" fill="none" stroke="#c7b8a6" stroke-width="2"/><text x="640" y="755" font-size="11" text-anchor="middle" fill="#6b5a4f">关联概念</text><path d="M 480 1168 C 640 1168, 640 88, 800 88" fill="none" stroke="#c7b8a6" stroke-width="2"/><text x="640" y="620" font-size="11" text-anchor="middle" fill="#6b5a4f">关联概念</text><path d="M 480 1168 C 520 1168, 520 268, 560 268" fill="none" stroke="#c7b8a6" stroke-width="2"/><text x="520" y="710" font-size="11" text-anchor="middle" fill="#6b5a4f">关联概念</text><path d="M 240 88 C 280 88, 280 1258, 320 1258" fill="none" stroke="#c7b8a6" stroke-width="2"/><text x="280" y="665" font-size="11" text-anchor="middle" fill="#6b5a4f">包含节点</text><path d="M 480 1258 C 760 1258, 760 178, 1040 178" fill="none" stroke="#c7b8a6" stroke-width="2"/><text x="760" y="710" font-size="11" text-anchor="middle" fill="#6b5a4f">关联概念</text><path d="M 240 88 C 280 88, 280 1348, 320 1348" fill="none" stroke="#c7b8a6" stroke-width="2"/><text x="280" y="710" font-size="11" text-anchor="middle" fill="#6b5a4f">包含节点</text><path d="M 480 1348 C 760 1348, 760 448, 1040 448" fill="none" stroke="#c7b8a6" stroke-width="2"/><text x="760" y="890" font-size="11" text-anchor="middle" fill="#6b5a4f">关联概念</text><path d="M 240 88 C 280 88, 280 1438, 320 1438" fill="none" stroke="#c7b8a6" stroke-width="2"/><text x="280" y="755" font-size="11" text-anchor="middle" fill="#6b5a4f">包含节点</text><path d="M 480 1438 C 760 1438, 760 88, 1040 88" fill="none" stroke="#c7b8a6" stroke-width="2"/><text x="760" y="755" font-size="11" text-anchor="middle" fill="#6b5a4f">关联概念</text><path d="M 240 88 C 280 88, 280 1528, 320 1528" fill="none" stroke="#c7b8a6" stroke-width="2"/><text x="280" y="800" font-size="11" text-anchor="middle" fill="#6b5a4f">包含节点</text><path d="M 480 1528 C 760 1528, 760 268, 1040 268" fill="none" stroke="#c7b8a6" stroke-width="2"/><text x="760" y="890" font-size="11" text-anchor="middle" fill="#6b5a4f">关联概念</text><path d="M 240 88 C 280 88, 280 1618, 320 1618" fill="none" stroke="#c7b8a6" stroke-width="2"/><text x="280" y="845" font-size="11" text-anchor="middle" fill="#6b5a4f">包含节点</text><path d="M 480 1618 C 760 1618, 760 358, 1040 358" fill="none" stroke="#c7b8a6" stroke-width="2"/><text x="760" y="980" font-size="11" text-anchor="middle" fill="#6b5a4f">关联概念</text><path d="M 480 88 C 400 88, 400 178, 320 178" fill="none" stroke="#c7b8a6" stroke-width="2"/><text x="400" y="125" font-size="11" text-anchor="middle" fill="#6b5a4f">继续</text><path d="M 480 178 C 400 178, 400 268, 320 268" fill="none" stroke="#c7b8a6" stroke-width="2"/><text x="400" y="215" font-size="11" text-anchor="middle" fill="#6b5a4f">是</text><path d="M 480 178 C 400 178, 400 358, 320 358" fill="none" stroke="#c7b8a6" stroke-width="2"/><text x="400" y="260" font-size="11" text-anchor="middle" fill="#6b5a4f">否</text><path d="M 480 268 C 400 268, 400 448, 320 448" fill="none" stroke="#c7b8a6" stroke-width="2"/><text x="400" y="350" font-size="11" text-anchor="middle" fill="#6b5a4f">继续</text><path d="M 480 358 C 400 358, 400 1618, 320 1618" fill="none" stroke="#c7b8a6" stroke-width="2"/><text x="400" y="980" font-size="11" text-anchor="middle" fill="#6b5a4f">继续</text><path d="M 480 448 C 400 448, 400 538, 320 538" fill="none" stroke="#c7b8a6" stroke-width="2"/><text x="400" y="485" font-size="11" text-anchor="middle" fill="#6b5a4f">是</text><path d="M 480 448 C 400 448, 400 628, 320 628" fill="none" stroke="#c7b8a6" stroke-width="2"/><text x="400" y="530" font-size="11" text-anchor="middle" fill="#6b5a4f">否</text><path d="M 480 538 C 400 538, 400 718, 320 718" fill="none" stroke="#c7b8a6" stroke-width="2"/><text x="400" y="620" font-size="11" text-anchor="middle" fill="#6b5a4f">继续</text><path d="M 480 628 C 400 628, 400 808, 320 808" fill="none" stroke="#c7b8a6" stroke-width="2"/><text x="400" y="710" font-size="11" text-anchor="middle" fill="#6b5a4f">继续</text><path d="M 480 718 C 400 718, 400 898, 320 898" fill="none" stroke="#c7b8a6" stroke-width="2"/><text x="400" y="800" font-size="11" text-anchor="middle" fill="#6b5a4f">是</text><path d="M 480 718 C 400 718, 400 988, 320 988" fill="none" stroke="#c7b8a6" stroke-width="2"/><text x="400" y="845" font-size="11" text-anchor="middle" fill="#6b5a4f">否</text><path d="M 480 808 C 400 808, 400 1078, 320 1078" fill="none" stroke="#c7b8a6" stroke-width="2"/><text x="400" y="935" font-size="11" text-anchor="middle" fill="#6b5a4f">是</text><path d="M 480 808 C 400 808, 400 1168, 320 1168" fill="none" stroke="#c7b8a6" stroke-width="2"/><text x="400" y="980" font-size="11" text-anchor="middle" fill="#6b5a4f">否</text><path d="M 480 898 C 400 898, 400 1258, 320 1258" fill="none" stroke="#c7b8a6" stroke-width="2"/><text x="400" y="1070" font-size="11" text-anchor="middle" fill="#6b5a4f">继续</text><path d="M 480 988 C 400 988, 400 1348, 320 1348" fill="none" stroke="#c7b8a6" stroke-width="2"/><text x="400" y="1160" font-size="11" text-anchor="middle" fill="#6b5a4f">继续</text><path d="M 480 1078 C 400 1078, 400 1438, 320 1438" fill="none" stroke="#c7b8a6" stroke-width="2"/><text x="400" y="1250" font-size="11" text-anchor="middle" fill="#6b5a4f">继续</text><path d="M 480 1168 C 400 1168, 400 1528, 320 1528" fill="none" stroke="#c7b8a6" stroke-width="2"/><text x="400" y="1340" font-size="11" text-anchor="middle" fill="#6b5a4f">继续</text></g>
  <g><rect x="80" y="60" rx="16" ry="16" width="160" height="56" fill="#fffaf2" stroke="#1d5c63" stroke-width="2"/><text x="92" y="82" font-size="11" fill="#1d5c63">workflow</text><text x="92" y="100" font-size="14" fill="#2f241d">急性胸痛临床评估与诊断流程</text><rect x="320" y="60" rx="16" ry="16" width="160" height="56" fill="#fffaf2" stroke="#2f6f76" stroke-width="2"/><text x="332" y="82" font-size="11" fill="#2f6f76">workflow_node</text><text x="332" y="100" font-size="14" fill="#2f241d">node_01 状态节点</text><rect x="800" y="330" rx="16" ry="16" width="160" height="56" fill="#fffaf2" stroke="#566573" stroke-width="2"/><text x="812" y="352" font-size="11" fill="#566573">concept</text><text x="812" y="370" font-size="14" fill="#2f241d">患者/主体</text><rect x="800" y="60" rx="16" ry="16" width="160" height="56" fill="#fffaf2" stroke="#566573" stroke-width="2"/><text x="812" y="82" font-size="11" fill="#566573">concept</text><text x="812" y="100" font-size="14" fill="#2f241d">临床表现</text><rect x="560" y="330" rx="16" ry="16" width="160" height="56" fill="#fffaf2" stroke="#9f2f22" stroke-width="2"/><text x="572" y="352" font-size="11" fill="#9f2f22">symptom</text><text x="572" y="370" font-size="14" fill="#2f241d">急性胸痛/症状</text><rect x="320" y="150" rx="16" ry="16" width="160" height="56" fill="#fffaf2" stroke="#2f6f76" stroke-width="2"/><text x="332" y="172" font-size="11" fill="#2f6f76">workflow_node</text><text x="332" y="190" font-size="14" fill="#2f241d">node_02 判断节点</text><rect x="560" y="510" rx="16" ry="16" width="160" height="56" fill="#fffaf2" stroke="#9f2f22" stroke-width="2"/><text x="572" y="532" font-size="11" fill="#9f2f22">symptom</text><text x="572" y="550" font-size="14" fill="#2f241d">缺血性胸痛症状</text><rect x="560" y="600" rx="16" ry="16" width="160" height="56" fill="#fffaf2" stroke="#9f2f22" stroke-width="2"/><text x="572" y="622" font-size="11" fill="#9f2f22">symptom</text><text x="572" y="640" font-size="14" fill="#2f241d">询问症状</text><rect x="320" y="240" rx="16" ry="16" width="160" height="56" fill="#fffaf2" stroke="#2f6f76" stroke-width="2"/><text x="332" y="262" font-size="11" fill="#2f6f76">workflow_node</text><text x="332" y="280" font-size="14" fill="#2f241d">node_03 状态节点</text><rect x="560" y="420" rx="16" ry="16" width="160" height="56" fill="#fffaf2" stroke="#9f2f22" stroke-width="2"/><text x="572" y="442" font-size="11" fill="#9f2f22">symptom</text><text x="572" y="460" font-size="14" fill="#2f241d">缺血性胸痛/症状</text><rect x="320" y="330" rx="16" ry="16" width="160" height="56" fill="#fffaf2" stroke="#2f6f76" stroke-width="2"/><text x="332" y="352" font-size="11" fill="#2f6f76">workflow_node</text><text x="332" y="370" font-size="14" fill="#2f241d">node_04 状态节点</text><rect x="560" y="780" rx="16" ry="16" width="160" height="56" fill="#fffaf2" stroke="#9f2f22" stroke-width="2"/><text x="572" y="802" font-size="11" fill="#9f2f22">symptom</text><text x="572" y="820" font-size="14" fill="#2f241d">非缺血性胸痛/症状</text><rect x="320" y="420" rx="16" ry="16" width="160" height="56" fill="#fffaf2" stroke="#2f6f76" stroke-width="2"/><text x="332" y="442" font-size="11" fill="#2f6f76">workflow_node</text><text x="332" y="460" font-size="14" fill="#2f241d">node_05 判断节点</text><rect x="560" y="60" rx="16" ry="16" width="160" height="56" fill="#fffaf2" stroke="#d17d48" stroke-width="2"/><text x="572" y="82" font-size="11" fill="#d17d48">finding</text><text x="572" y="100" font-size="14" fill="#2f241d">ST段抬高/临床发现</text><rect x="800" y="150" rx="16" ry="16" width="160" height="56" fill="#fffaf2" stroke="#7c4d2b" stroke-width="2"/><text x="812" y="172" font-size="11" fill="#7c4d2b">exam</text><text x="812" y="190" font-size="14" fill="#2f241d">心电图检查</text><rect x="320" y="510" rx="16" ry="16" width="160" height="56" fill="#fffaf2" stroke="#2f6f76" stroke-width="2"/><text x="332" y="532" font-size="11" fill="#2f6f76">workflow_node</text><text x="332" y="550" font-size="14" fill="#2f241d">node_06 状态节点</text><rect x="320" y="600" rx="16" ry="16" width="160" height="56" fill="#fffaf2" stroke="#2f6f76" stroke-width="2"/><text x="332" y="622" font-size="11" fill="#2f6f76">workflow_node</text><text x="332" y="640" font-size="14" fill="#2f241d">node_07 状态节点</text><rect x="560" y="690" rx="16" ry="16" width="160" height="56" fill="#fffaf2" stroke="#d17d48" stroke-width="2"/><text x="572" y="712" font-size="11" fill="#d17d48">finding</text><text x="572" y="730" font-size="14" fill="#2f241d">非ST段抬高/临床发现</text><rect x="320" y="690" rx="16" ry="16" width="160" height="56" fill="#fffaf2" stroke="#2f6f76" stroke-width="2"/><text x="332" y="712" font-size="11" fill="#2f6f76">workflow_node</text><text x="332" y="730" font-size="14" fill="#2f241d">node_08 判断节点</text><rect x="560" y="150" rx="16" ry="16" width="160" height="56" fill="#fffaf2" stroke="#d17d48" stroke-width="2"/><text x="572" y="172" font-size="11" fill="#d17d48">finding</text><text x="572" y="190" font-size="14" fill="#2f241d">心肌损伤标志物升高/临床发现</text><rect x="800" y="240" rx="16" ry="16" width="160" height="56" fill="#fffaf2" stroke="#566573" stroke-width="2"/><text x="812" y="262" font-size="11" fill="#566573">concept</text><text x="812" y="280" font-size="14" fill="#2f241d">心肌损伤标志物检测</text><rect x="320" y="780" rx="16" ry="16" width="160" height="56" fill="#fffaf2" stroke="#2f6f76" stroke-width="2"/><text x="332" y="802" font-size="11" fill="#2f6f76">workflow_node</text><text x="332" y="820" font-size="14" fill="#2f241d">node_09 判断节点</text><rect x="320" y="870" rx="16" ry="16" width="160" height="56" fill="#fffaf2" stroke="#2f6f76" stroke-width="2"/><text x="332" y="892" font-size="11" fill="#2f6f76">workflow_node</text><text x="332" y="910" font-size="14" fill="#2f241d">node_10 状态节点</text><rect x="320" y="960" rx="16" ry="16" width="160" height="56" fill="#fffaf2" stroke="#2f6f76" stroke-width="2"/><text x="332" y="982" font-size="11" fill="#2f6f76">workflow_node</text><text x="332" y="1000" font-size="14" fill="#2f241d">node_11 状态节点</text><rect x="560" y="240" rx="16" ry="16" width="160" height="56" fill="#fffaf2" stroke="#d17d48" stroke-width="2"/><text x="572" y="262" font-size="11" fill="#d17d48">finding</text><text x="572" y="280" font-size="14" fill="#2f241d">心肌损伤标志物未升高/临床发现</text><rect x="320" y="1050" rx="16" ry="16" width="160" height="56" fill="#fffaf2" stroke="#2f6f76" stroke-width="2"/><text x="332" y="1072" font-size="11" fill="#2f6f76">workflow_node</text><text x="332" y="1090" font-size="14" fill="#2f241d">node_12 状态节点</text><rect x="320" y="1140" rx="16" ry="16" width="160" height="56" fill="#fffaf2" stroke="#2f6f76" stroke-width="2"/><text x="332" y="1162" font-size="11" fill="#2f6f76">workflow_node</text><text x="332" y="1180" font-size="14" fill="#2f241d">node_13 状态节点</text><rect x="320" y="1230" rx="16" ry="16" width="160" height="56" fill="#fffaf2" stroke="#2f6f76" stroke-width="2"/><text x="332" y="1252" font-size="11" fill="#2f6f76">workflow_node</text><text x="332" y="1270" font-size="14" fill="#2f241d">node_14 状态节点</text><rect x="1040" y="150" rx="16" ry="16" width="160" height="56" fill="#fffaf2" stroke="#245c3f" stroke-width="2"/><text x="1052" y="172" font-size="11" fill="#245c3f">diagnosis</text><text x="1052" y="190" font-size="14" fill="#2f241d">最终诊断: STEMI: 急性ST段抬高心肌梗死</text><rect x="320" y="1320" rx="16" ry="16" width="160" height="56" fill="#fffaf2" stroke="#2f6f76" stroke-width="2"/><text x="332" y="1342" font-size="11" fill="#2f6f76">workflow_node</text><text x="332" y="1360" font-size="14" fill="#2f241d">node_15 状态节点</text><rect x="1040" y="420" rx="16" ry="16" width="160" height="56" fill="#fffaf2" stroke="#245c3f" stroke-width="2"/><text x="1052" y="442" font-size="11" fill="#245c3f">diagnosis</text><text x="1052" y="460" font-size="14" fill="#2f241d">最终诊断: 变异性心绞痛</text><rect x="320" y="1410" rx="16" ry="16" width="160" height="56" fill="#fffaf2" stroke="#2f6f76" stroke-width="2"/><text x="332" y="1432" font-size="11" fill="#2f6f76">workflow_node</text><text x="332" y="1450" font-size="14" fill="#2f241d">node_16 状态节点</text><rect x="1040" y="60" rx="16" ry="16" width="160" height="56" fill="#fffaf2" stroke="#245c3f" stroke-width="2"/><text x="1052" y="82" font-size="11" fill="#245c3f">diagnosis</text><text x="1052" y="100" font-size="14" fill="#2f241d">最终诊断: NSTEMI: 急性非ST段抬高心肌梗死</text><rect x="320" y="1500" rx="16" ry="16" width="160" height="56" fill="#fffaf2" stroke="#2f6f76" stroke-width="2"/><text x="332" y="1522" font-size="11" fill="#2f6f76">workflow_node</text><text x="332" y="1540" font-size="14" fill="#2f241d">node_17 状态节点</text><rect x="1040" y="240" rx="16" ry="16" width="160" height="56" fill="#fffaf2" stroke="#245c3f" stroke-width="2"/><text x="1052" y="262" font-size="11" fill="#245c3f">diagnosis</text><text x="1052" y="280" font-size="14" fill="#2f241d">最终诊断: UA: 不稳定型心绞痛</text><rect x="320" y="1590" rx="16" ry="16" width="160" height="56" fill="#fffaf2" stroke="#2f6f76" stroke-width="2"/><text x="332" y="1612" font-size="11" fill="#2f6f76">workflow_node</text><text x="332" y="1630" font-size="14" fill="#2f241d">node_18 状态节点</text><rect x="1040" y="330" rx="16" ry="16" width="160" height="56" fill="#fffaf2" stroke="#245c3f" stroke-width="2"/><text x="1052" y="352" font-size="11" fill="#245c3f">diagnosis</text><text x="1052" y="370" font-size="14" fill="#2f241d">最终诊断: 其他</text></g>
</svg>
